<svg width="36" height="36" viewBox="0 0 36 36" fill="none" xmlns="http://www.w3.org/2000/svg">
<path d="M18 0.03125C14.4461 0.03125 10.9721 1.0851 8.01711 3.05953C5.06216 5.03396 2.75906 7.8403 1.39905 11.1237C0.0390353 14.407 -0.316806 18.0199 0.376523 21.5055C1.06985 24.9911 2.78121 28.1929 5.29418 30.7058C7.80716 33.2188 11.0089 34.9302 14.4945 35.6235C17.9801 36.3168 21.593 35.961 24.8764 34.601C28.1597 33.241 30.966 30.9379 32.9405 27.9829C34.9149 25.028 35.9688 21.5539 35.9688 18C35.9634 13.236 34.0685 8.66874 30.6999 5.30011C27.3313 1.93148 22.764 0.0366242 18 0.03125V0.03125ZM18 34.5313C14.7304 34.5313 11.5343 33.5617 8.81574 31.7452C6.09719 29.9288 3.97834 27.3469 2.72712 24.3262C1.47591 21.3055 1.14854 17.9817 1.7864 14.7749C2.42426 11.5682 3.99871 8.62258 6.31065 6.31064C8.62259 3.9987 11.5682 2.42426 14.7749 1.78639C17.9817 1.14853 21.3056 1.47591 24.3262 2.72712C27.3469 3.97833 29.9288 6.09718 31.7452 8.81573C33.5617 11.5343 34.5313 14.7304 34.5313 18C34.5263 22.3828 32.783 26.5847 29.6839 29.6838C26.5847 32.783 22.3828 34.5263 18 34.5313ZM24.4688 21.5938C24.4675 22.7371 24.0127 23.8333 23.2042 24.6417C22.3958 25.4502 21.2996 25.905 20.1563 25.9063H18.7188V28.0625C18.7188 28.2531 18.643 28.4359 18.5082 28.5707C18.3735 28.7055 18.1906 28.7813 18 28.7813C17.8094 28.7813 17.6266 28.7055 17.4918 28.5707C17.357 28.4359 17.2813 28.2531 17.2813 28.0625V25.9063H13.6875C13.4969 25.9063 13.3141 25.8305 13.1793 25.6957C13.0445 25.5609 12.9688 25.3781 12.9688 25.1875C12.9688 24.9969 13.0445 24.8141 13.1793 24.6793C13.3141 24.5445 13.4969 24.4688 13.6875 24.4688H20.1563C20.9188 24.4688 21.65 24.1659 22.1892 23.6267C22.7284 23.0875 23.0313 22.3562 23.0313 21.5938C23.0313 20.8313 22.7284 20.1 22.1892 19.5608C21.65 19.0217 20.9188 18.7188 20.1563 18.7188H15.8438C14.7 18.7188 13.6031 18.2644 12.7944 17.4556C11.9856 16.6469 11.5313 15.55 11.5313 14.4063C11.5313 13.2625 11.9856 12.1656 12.7944 11.3569C13.6031 10.5481 14.7 10.0938 15.8438 10.0938H17.2813V7.9375C17.2813 7.74688 17.357 7.56406 17.4918 7.42927C17.6266 7.29448 17.8094 7.21875 18 7.21875C18.1906 7.21875 18.3735 7.29448 18.5082 7.42927C18.643 7.56406 18.7188 7.74688 18.7188 7.9375V10.0938H22.3125C22.5031 10.0938 22.686 10.1695 22.8207 10.3043C22.9555 10.4391 23.0313 10.6219 23.0313 10.8125C23.0313 11.0031 22.9555 11.1859 22.8207 11.3207C22.686 11.4555 22.5031 11.5313 22.3125 11.5313H15.8438C15.0813 11.5313 14.35 11.8342 13.8108 12.3733C13.2717 12.9125 12.9688 13.6438 12.9688 14.4063C12.9688 15.1687 13.2717 15.9 13.8108 16.4392C14.35 16.9783 15.0813 17.2813 15.8438 17.2813H20.1563C21.2996 17.2825 22.3958 17.7373 23.2042 18.5458C24.0127 19.3542 24.4675 20.4504 24.4688 21.5938V21.5938Z" fill="white"/>
</svg>
