<svg width="30" height="30" viewBox="0 0 30 30" fill="none" xmlns="http://www.w3.org/2000/svg">
<path d="M15 10.1785C14.3668 10.1785 13.7399 10.3032 13.1549 10.5455C12.57 10.7878 12.0384 11.1429 11.5907 11.5906C11.143 12.0383 10.7879 12.5699 10.5456 13.1548C10.3033 13.7398 10.1786 14.3667 10.1786 14.9999C10.1786 15.6331 10.3033 16.26 10.5456 16.845C10.7879 17.4299 11.143 17.9614 11.5907 18.4092C12.0384 18.8569 12.57 19.212 13.1549 19.4543C13.7399 19.6966 14.3668 19.8213 15 19.8213C16.2787 19.8213 17.5051 19.3134 18.4093 18.4092C19.3135 17.505 19.8214 16.2786 19.8214 14.9999C19.8214 13.7212 19.3135 12.4948 18.4093 11.5906C17.5051 10.6864 16.2787 10.1785 15 10.1785ZM11.7857 14.9999C11.7857 14.5778 11.8689 14.1598 12.0304 13.7698C12.1919 13.3799 12.4287 13.0255 12.7272 12.7271C13.0256 12.4286 13.38 12.1918 13.7699 12.0303C14.1599 11.8687 14.5779 11.7856 15 11.7856C15.4221 11.7856 15.8401 11.8687 16.2301 12.0303C16.62 12.1918 16.9744 12.4286 17.2728 12.7271C17.5713 13.0255 17.8081 13.3799 17.9696 13.7698C18.1311 14.1598 18.2143 14.5778 18.2143 14.9999C18.2143 15.8524 17.8756 16.6699 17.2728 17.2727C16.67 17.8755 15.8525 18.2142 15 18.2142C14.1475 18.2142 13.33 17.8755 12.7272 17.2727C12.1244 16.6699 11.7857 15.8524 11.7857 14.9999Z" fill="white"/>
<path d="M23.2607 23.9946L21.4093 23.1814C21.1458 23.0669 20.8592 23.0156 20.5723 23.0316C20.2854 23.0476 20.0063 23.1305 19.7571 23.2735C19.2568 23.5628 18.9375 24.0739 18.8743 24.6493L18.6514 26.6635C18.629 26.866 18.5446 27.0565 18.4098 27.2091C18.275 27.3618 18.0963 27.4691 17.8982 27.5164C15.9921 27.9708 14.0058 27.9708 12.0996 27.5164C11.9018 27.4689 11.7233 27.3615 11.5887 27.2089C11.4541 27.0563 11.3699 26.8658 11.3475 26.6635L11.1246 24.6525C11.0926 24.3694 10.9948 24.0979 10.8388 23.8595C10.6829 23.6212 10.4733 23.4227 10.2268 23.28C9.98054 23.1376 9.70427 23.055 9.42027 23.039C9.13626 23.023 8.85247 23.074 8.59179 23.1878L6.74036 24.001C6.5532 24.0833 6.3451 24.1053 6.14489 24.064C5.94467 24.0227 5.76224 23.9202 5.62286 23.7707C4.29029 22.3427 3.29866 20.6312 2.7225 18.765C2.66192 18.5688 2.66381 18.3587 2.72793 18.1636C2.79204 17.9686 2.9152 17.7983 3.08036 17.6764L4.71643 16.4678C4.94675 16.2986 5.13403 16.0776 5.2631 15.8226C5.39218 15.5676 5.45943 15.2858 5.45943 15C5.45943 14.7142 5.39218 14.4324 5.2631 14.1774C5.13403 13.9224 4.94675 13.7013 4.71643 13.5321L3.08036 12.3268C2.91499 12.2047 2.79169 12.0343 2.72757 11.839C2.66344 11.6438 2.66167 11.4334 2.7225 11.2371C3.29986 9.37247 4.2922 7.66289 5.625 6.23675C5.76451 6.0874 5.947 5.9851 6.14721 5.94402C6.34742 5.90295 6.55545 5.92512 6.7425 6.00747L8.58536 6.81854C8.84757 6.93139 9.13256 6.9813 9.41752 6.96426C9.70248 6.94723 9.9795 6.86373 10.2264 6.72044C10.4733 6.57715 10.6832 6.37805 10.8394 6.13908C10.9956 5.90012 11.0936 5.62791 11.1257 5.34425L11.3507 3.33211C11.3734 3.12741 11.4594 2.9349 11.5967 2.78143C11.734 2.62796 11.9159 2.5212 12.1168 2.47604C13.0607 2.26604 14.0239 2.15461 15.0139 2.14282C15.9804 2.15354 16.9425 2.26604 17.8854 2.47604C18.0865 2.52111 18.2685 2.62799 18.4059 2.7817C18.5433 2.9354 18.6291 3.12824 18.6514 3.33318L18.8754 5.34532C18.9236 5.79155 19.1349 6.20427 19.4686 6.50439C19.8024 6.80451 20.2351 6.97093 20.6839 6.97175C20.9336 6.97175 21.1811 6.91925 21.4125 6.81747L23.2554 6.00639C23.4424 5.92404 23.6504 5.90187 23.8506 5.94295C24.0509 5.98403 24.2333 6.08633 24.3729 6.23568C25.7053 7.66188 26.6973 9.37147 27.2743 11.236C27.335 11.4321 27.3332 11.6421 27.2693 11.8372C27.2054 12.0322 27.0825 12.2025 26.9175 12.3246L25.2836 13.5321C24.8175 13.875 24.5357 14.4203 24.5357 15C24.5357 15.5785 24.8175 16.1239 25.2846 16.4678L26.9196 17.6743C27.2582 17.925 27.4018 18.3621 27.2775 18.7639C26.7006 20.6282 25.709 22.3378 24.3771 23.7643C24.2378 23.9138 24.0553 24.0163 23.8551 24.0576C23.6549 24.0988 23.4468 24.0768 23.2596 23.9946H23.2607ZM17.4246 23.7825C17.6803 22.9818 18.2245 22.3047 18.9514 21.8828C19.4191 21.6134 19.9434 21.4574 20.4823 21.4274C21.0212 21.3975 21.5596 21.4944 22.0543 21.7103L23.4943 22.3425C24.4192 21.2715 25.1352 20.0366 25.605 18.7018L24.3311 17.7621V17.761C23.8974 17.4426 23.5445 17.0267 23.3009 16.547C23.0573 16.0672 22.9298 15.537 22.9286 14.9989C22.9286 13.8985 23.4611 12.8775 24.3289 12.2389L24.3311 12.2378L25.6029 11.2982C25.1327 9.96359 24.4164 8.72903 23.4911 7.65854L22.0629 8.28639L22.0607 8.28747C21.6257 8.48032 21.1575 8.57889 20.6829 8.57889C19.8388 8.57763 19.0248 8.26524 18.3966 7.70149C17.7684 7.13773 17.3701 6.36219 17.2779 5.52318V5.52104L17.1032 3.95675C16.414 3.82838 15.715 3.7592 15.0139 3.74997C14.2918 3.75961 13.5889 3.82925 12.8979 3.95675L12.7232 5.52211C12.6632 6.05628 12.4786 6.56892 12.1844 7.0188C11.8902 7.46868 11.4945 7.84327 11.0293 8.11244C10.564 8.38161 10.042 8.53786 9.50535 8.56863C8.96869 8.5994 8.43229 8.50383 7.93929 8.28961L6.50786 7.65961C5.58249 8.73007 4.86617 9.96464 4.39607 11.2993L5.67107 12.2389C6.10388 12.5576 6.45571 12.9736 6.69819 13.4533C6.94067 13.933 7.067 14.463 7.067 15.0005C7.067 15.538 6.94067 16.068 6.69819 16.5477C6.45571 17.0274 6.10388 17.4434 5.67107 17.7621L4.39607 18.7028C4.86529 20.0396 5.58125 21.2763 6.50679 22.3489L7.94786 21.7168C8.4393 21.5016 8.97444 21.4051 9.51008 21.4348C10.0457 21.4646 10.5669 21.6199 11.0314 21.8882C11.4958 22.1564 11.8908 22.5299 12.1846 22.9785C12.4784 23.4272 12.6629 23.9385 12.7232 24.4714V24.4768L12.8968 26.0453C14.2864 26.3185 15.7146 26.3185 17.1043 26.0453L17.2779 24.4735C17.3036 24.2378 17.3529 24.0053 17.4257 23.7825H17.4246Z" fill="white"/>
</svg>
