<svg width="16" height="22" viewBox="0 0 16 22" fill="none" xmlns="http://www.w3.org/2000/svg">
<path d="M4.65193 0.312307L0.318599 4.64564C0.21759 4.74665 0.137466 4.86656 0.0828008 4.99854C0.0281355 5.13051 -7.16468e-07 5.27196 -7.10224e-07 5.41481C-6.97614e-07 5.7033 0.114603 5.97998 0.318599 6.18397C0.522594 6.38797 0.799272 6.50257 1.08777 6.50257C1.37626 6.50257 1.65294 6.38797 1.85693 6.18397L4.33776 3.69231L4.33777 16.2481C4.33777 16.5355 4.4519 16.811 4.65507 17.0142C4.85823 17.2173 5.13378 17.3315 5.4211 17.3315C5.70842 17.3315 5.98397 17.2173 6.18713 17.0142C6.3903 16.811 6.50443 16.5355 6.50443 16.2481L6.50443 1.08147C6.50336 0.867595 6.43901 0.658819 6.31948 0.481456C6.19996 0.304092 6.0306 0.166078 5.83276 0.0848062C5.63548 0.00184416 5.41804 -0.0208209 5.20788 0.0196684C4.99773 0.0601557 4.80427 0.161985 4.65193 0.312307ZM8.6711 5.41481L8.6711 20.5815C8.67217 20.7954 8.73652 21.0041 8.85605 21.1815C8.97557 21.3589 9.14493 21.4969 9.34277 21.5781C9.54005 21.6611 9.75749 21.6838 9.96765 21.6433C10.1778 21.6028 10.3713 21.501 10.5236 21.3506L14.8569 17.0173C14.9585 16.9166 15.0391 16.7968 15.0941 16.6648C15.1491 16.5327 15.1774 16.3912 15.1774 16.2481C15.1774 16.1051 15.1491 15.9635 15.0941 15.8315C15.0391 15.6995 14.9585 15.5797 14.8569 15.479C14.7562 15.3774 14.6364 15.2968 14.5044 15.2418C14.3724 15.1868 14.2308 15.1585 14.0878 15.1585C13.9448 15.1585 13.8032 15.1868 13.6711 15.2418C13.5391 15.2968 13.4193 15.3774 13.3186 15.479L10.8378 17.9706L10.8378 5.41481C10.8378 5.12749 10.7236 4.85194 10.5205 4.64877C10.3173 4.44561 10.0417 4.33147 9.75443 4.33147C9.46711 4.33147 9.19156 4.44561 8.9884 4.64877C8.78524 4.85194 8.6711 5.12749 8.6711 5.41481Z" fill="#513070"/>
</svg>
